<?xml version="1.0" encoding="UTF-8"?>
<svg width="117px" height="90px" viewBox="0 0 117 90" version="1.1" xmlns="http://www.w3.org/2000/svg" xmlns:xlink="http://www.w3.org/1999/xlink">
    <title>Unite against COVID-19</title>
    <g id="Logos-/-COVID-19-logo-reversed" stroke="none" stroke-width="1" fill="none" fill-rule="evenodd">
        <g id="Unite_lockup_rgb_rev" transform="translate(-0.000000, 0.000000)" fill-rule="nonzero">
            <rect id="Rectangle" fill="#FFCC00" x="0" y="65.2941176" width="116.470588" height="24.7058824"></rect>
            <path d="M111.575946,77.2364147 L111.575946,78.5555823 C111.575946,83.1216046 109.568518,85.3641896 105.890479,85.3641896 C103.465399,85.3641896 101.90706,84.202471 101.184027,82.7769188 C101.0987,82.7215989 100.402612,83.0407524 100.402612,83.5130995 C100.478184,84.0746641 100.765245,84.5914764 101.210972,84.9684393 C102.10915,85.8195152 103.716889,86.4705882 105.890479,86.4705882 C110.381369,86.4705882 112.941176,83.7514007 112.941176,78.5002624 L112.941176,76.5683201 C112.941176,71.5810153 110.18377,68.8618278 106.061133,68.8618278 C102.436985,68.8618278 99.8187962,71.4150555 99.8187962,74.6151009 L99.8187962,74.7768053 C99.8187962,77.8364232 102.21244,79.8832608 105.890479,79.8832608 C108.118643,79.9287224 110.234058,78.9565663 111.575946,77.2704577 M106.002752,78.7768621 C102.96691,78.7768621 101.157081,77.2449255 101.157081,74.683187 L101.157081,74.525738 C101.157081,71.9725102 103.2184,69.9809926 106.09706,69.9809926 C109.240683,69.9809926 111.279547,72.1086824 111.531037,75.938524 C110.610405,77.4917375 108.463759,78.7896282 105.984788,78.7896282 M94.5599641,86.3131392 L94.7575632,86.3131392 C95.1482707,86.3131392 95.3683243,86.1259025 95.3683243,85.7046199 L95.3683243,69.704393 C95.3683243,69.278855 95.1482707,69.0703414 94.7306179,69.0703414 L94.1423113,69.0703414 C94.0869503,70.2415992 93.0668168,71.1631879 91.829503,71.1597328 C91.2171724,71.1966393 90.6241619,70.9490171 90.239728,70.4958936 C89.9561937,70.6313112 89.7810828,70.91007 89.790639,71.2107973 C89.7888304,71.4913548 89.9109605,71.7598378 90.1274557,71.9512334 C90.5601884,72.3237274 91.1337826,72.5141108 91.7172308,72.4789004 C92.6246196,72.5011908 93.4775068,72.0696332 93.9626757,71.3427141 L93.9626757,85.7046199 C93.9626757,86.1301579 94.1602749,86.3131392 94.5464914,86.3131392 M81.7878732,80.2662449 L87.9448832,80.2662449 C88.362536,80.2662449 88.5825896,80.1087959 88.5825896,79.7641101 L88.5825896,79.6321934 C88.5825896,79.2619753 88.362536,79.1045263 87.9448832,79.1045263 L81.8193094,79.1045263 C81.3971657,79.1045263 81.1771121,79.2619753 81.1771121,79.6321934 L81.1771121,79.7641101 C81.1771121,80.1087959 81.3971657,80.2662449 81.8193094,80.2662449 M65.1266716,85.0237592 L65.1266716,70.2661031 L68.8316558,70.2661031 C74.126415,70.2661031 77.2206381,73.0661428 77.2206381,77.632165 C77.2206381,82.2790394 74.1533603,85.0237592 68.7777651,85.0237592 L65.1266716,85.0237592 Z M64.5698013,86.1854778 L68.6924382,86.1854778 C74.9347752,86.1854778 78.6667047,82.9386232 78.6667047,77.6066327 C78.6667047,72.2746422 75.0201021,69.0958168 68.8316558,69.0958168 L64.5698013,69.0958168 C64.3498641,69.0933206 64.1385345,69.1767519 63.985574,69.3265222 C63.8326135,69.4762925 63.751539,69.6791667 63.7614411,69.8873743 L63.7614411,85.3854665 C63.751539,85.5936741 63.8326135,85.7965482 63.985574,85.9463185 C64.1385345,86.0960888 64.3498641,86.1795201 64.5698013,86.176967 M58.2825554,86.2578193 L58.4801545,86.2578193 C58.8663711,86.2578193 59.0639702,86.0705826 59.0639702,85.6493 L59.0639702,69.6320515 C59.0639702,69.2363012 58.8663711,69.0235322 58.4801545,69.0235322 L58.2825554,69.0235322 C57.891848,69.0235322 57.6987397,69.2363012 57.6987397,69.6320515 L57.6987397,85.6578107 C57.6987397,86.0833487 57.891848,86.26633 58.2825554,86.26633 M46.9700037,86.2918623 C47.5538194,86.2918623 47.7514186,86.1344133 47.8681817,85.8152598 L54.748225,69.4192825 C54.8335519,69.2107689 53.607539,68.5213975 53.1629409,69.6575838 L46.9475493,84.8152456 L40.759103,69.6575838 C40.310014,68.5213975 39.0615466,69.2320458 39.1154373,69.4192825 L46.0358986,85.8152598 C46.1751162,86.1344133 46.3682245,86.2918623 46.9834764,86.2918623 M28.970517,85.3173804 C24.5380086,85.3173804 21.502167,82.0662704 21.502167,77.6576973 C21.502167,73.2491241 24.5290268,69.9597157 28.970517,69.9597157 C33.4120071,69.9597157 36.434376,73.2576349 36.434376,77.6406758 C36.434376,82.0237166 33.4254797,85.3003589 28.9974623,85.3003589 M28.9390807,86.4322898 C34.2607853,86.4322898 37.8579881,82.7386204 37.8579881,77.6151435 C37.8579881,72.4916665 34.2922215,68.8235294 28.9974623,68.8235294 C23.7027031,68.8235294 20.0785549,72.5469865 20.0785549,77.666208 C20.0785549,82.7854296 23.6488124,86.4322898 28.9390807,86.4322898 M10.6881041,86.4322898 C13.4185652,86.4322898 15.4529383,85.4578079 16.526261,84.4280061 C17.1595668,83.9043086 17.5882853,83.1937708 17.7432922,82.4109562 C17.7097648,81.9684158 17.3130858,81.630127 16.8451142,81.6449879 C16.1759716,83.5471425 14.0832169,85.3173804 10.7689401,85.3173804 C6.27805024,85.3173804 3.24669955,82.0662704 3.24669955,77.6576973 C3.24669955,73.2491241 6.2511049,69.9597157 10.652177,69.9597157 C13.4095834,69.9597157 15.668501,71.3299479 16.6160788,73.2321026 C16.8340519,73.2287444 17.041686,73.1434609 17.1932892,72.9950197 C17.3448924,72.8465784 17.4280416,72.6471433 17.424439,72.440602 C17.3060588,71.8183131 16.9727216,71.2509691 16.4768612,70.8278132 C15.4170112,69.827799 13.5218557,68.8235294 10.7105586,68.8235294 C5.41579938,68.8235294 1.76470588,72.5214542 1.76470588,77.666208 C1.76470588,82.8109619 5.33047247,86.4322898 10.6791224,86.4322898" id="Shape" fill="#231F20"></path>
            <path d="M103.644674,39.1418459 L103.644674,48.5478317 C103.644674,52.3998941 105.278632,54.4357227 108.874237,54.4357227 C111.450863,54.4357227 112.941176,53.0998531 112.941176,51.7319593 C112.941176,50.5836604 112.043397,50.0666972 111.926686,50.1764947 C111.357389,50.9848311 110.433885,51.4554295 109.457794,51.434591 C107.747525,51.434591 107.132546,50.3594905 107.132546,48.140666 L107.132546,39.1418459 L111.091752,39.1418459 C112.213975,39.1418459 112.653887,38.6843563 112.653887,37.7373528 L112.653887,37.4765838 C112.653887,36.589054 112.254375,36.1452891 111.127663,36.1452891 L107.168457,36.1452891 L107.168457,33.4003515 C107.168457,32.0278828 106.54899,31.6573162 105.606322,31.6573162 L105.242721,31.6573162 C104.259653,31.6573162 103.644674,32.1422552 103.644674,33.4003515 L103.644674,36.1452891 L102.369828,36.1452891 C101.243115,36.1452891 100.807692,36.6027786 100.807692,37.5177578 L100.807692,37.7785269 C100.807692,38.6660567 101.256582,39.1509956 102.369828,39.1509956 L103.644674,39.1418459 Z M91.5830125,54.3991235 C96.0719078,54.3991235 98.8460451,52.2123233 98.8460451,48.8086008 C98.8460451,44.9565385 95.1067953,44.142207 92.417947,43.5474706 C89.5854541,42.9207098 88.0592297,42.5501433 88.0592297,40.9214803 C88.0592297,39.4392141 89.3654982,38.478486 91.8343906,38.478486 C93.8376213,38.4371335 95.7401345,39.371778 96.9562202,40.9946787 C97.0325314,41.1044762 98.4106223,40.4365414 98.4106223,39.2928174 C98.4106223,37.6229804 96.1661746,35.7015242 91.6772793,35.7015242 C87.4262954,35.7015242 84.701536,37.9569478 84.701536,41.2920469 C84.701536,45.066336 88.26123,45.8669428 90.8423448,46.4342299 C93.7107489,47.0655655 95.3312401,47.3995329 95.3312401,49.2111916 C95.3312401,50.6934579 93.9531492,51.6221618 91.4797679,51.6221618 C88.7235862,51.6221618 86.7619389,50.4738629 85.5948261,48.9549975 C84.8189454,49.1386983 84.2478014,49.8113313 84.1808241,50.6202596 C84.1808241,52.3221208 86.6856277,54.3991235 91.5560791,54.3991235 M68.6312907,38.8444776 C68.5235572,36.5112807 67.4327556,35.9531434 66.386843,35.9531434 C65.659642,35.9531434 65.0805745,36.2505117 65.0805745,36.3603092 L65.0805745,52.3724447 C65.0805745,53.7083143 65.7359532,54.11548 66.6786212,54.11548 L67.0781329,54.11548 C67.975912,54.11548 68.6761796,53.7083143 68.6761796,52.3724447 L68.6761796,42.03318 C69.5610523,40.0958548 71.4862814,38.8751437 73.5825422,38.9222508 C76.123257,38.9222508 77.622548,40.7522092 77.622548,43.7716405 L77.622548,52.35872 C77.622548,53.6945896 78.2779267,54.1017553 79.2205948,54.1017553 L79.6201065,54.1017553 C80.5178855,54.1017553 81.2181532,53.6945896 81.2181532,52.35872 L81.2181532,43.3278756 C81.2181532,38.9222508 79.0769501,35.7015242 74.4623657,35.7015242 C72.1192216,35.6481041 69.9173994,36.8402864 68.6492463,38.8490525 M59.5412776,54.11548 L59.9048782,54.11548 C60.8475462,54.11548 61.5029249,53.7083143 61.5029249,52.3724447 L61.5029249,37.7327779 C61.5029249,36.3603092 60.8475462,35.9531434 59.9048782,35.9531434 L59.5412776,35.9531434 C58.5986096,35.9531434 57.9073197,36.410633 57.9073197,37.7327779 L57.9073197,52.3724447 C57.9073197,53.7083143 58.5986096,54.11548 59.5412776,54.11548 M59.7253224,32.3435506 C61.1034132,32.3435506 61.8665254,31.6390166 61.8665254,30.3077219 C61.8665254,28.9764272 61.1034132,28.2352941 59.7567446,28.2352941 C58.410076,28.2352941 57.5796304,28.9764272 57.5796304,30.3077219 C57.5796304,31.6390166 58.3786538,32.3435506 59.7253224,32.3435506 M50.7161094,43.2546772 L50.2447754,43.2546772 C42.3577863,43.4010739 38.5063141,45.1761335 38.5063141,49.2889649 C38.5063141,52.3221208 40.7238284,54.3579495 44.4675671,54.3579495 C47.1609043,54.3579495 49.4412632,53.1776264 50.7520206,51.2515952 C50.7879318,53.4338205 51.6946886,54.1383545 52.965046,54.1383545 C53.6204247,54.1383545 54.2758034,53.9141846 54.2758034,53.7311888 L54.2758034,42.8109123 C54.2758034,38.2909152 51.5824662,35.7015242 46.6446814,35.7015242 C41.7068965,35.7015242 39.1616929,38.2543161 39.1616929,39.9561773 C39.1616929,41.7358118 41.3792072,41.7861357 41.3792072,41.7358118 C42.1782305,40.1071489 43.7403661,38.698081 46.3933032,38.698081 C49.189885,38.698081 50.7161094,40.1803472 50.7161094,42.8841107 L50.7161094,43.2546772 Z M45.329435,51.7319593 C43.2600543,51.7319593 42.0211192,50.7300571 42.0211192,49.1379933 C42.0211192,46.7315981 44.6381452,45.77087 49.7240636,45.5832992 L50.7071316,45.5467001 L50.7071316,46.9191688 C50.7071316,49.7327298 48.462684,51.7319593 45.3204572,51.7319593 M32.4014165,36.7720498 C31.118144,36.0645859 29.681237,35.6965107 28.2222549,35.7015242 C23.8994487,35.7015242 20.7392664,38.698081 20.7392664,42.4357709 C20.7392664,45.2127327 22.5348246,47.436132 25.3179397,48.360261 C24.7202923,48.8184581 24.3548,49.5248555 24.3214049,50.2862922 C24.3010787,50.9268374 24.5688801,51.5417769 25.0486059,51.9561292 C21.8525125,52.5096916 19.4554424,54.2435771 19.4554424,56.8421179 C19.4554424,60.1726421 22.1802018,61.7647059 28.0651436,61.7647059 C33.8423519,61.7647059 37.2180012,59.6922781 37.2180012,56.3205798 C37.2180012,53.3972214 34.6009752,52.139125 32.1320828,51.4711902 C29.079634,50.6934579 27.4097649,50.5836604 27.4097649,49.4353615 C27.4013257,49.199258 27.4639831,48.9661769 27.5893207,48.7674267 C27.8060881,48.8015203 28.0254645,48.8153025 28.2446994,48.8086008 C32.6752391,48.8086008 35.8039992,46.0636633 35.8039992,42.3259734 C35.8020938,40.8525643 35.2721036,39.4306189 34.3136859,38.3275144 L37.2539123,35.2165852 C37.3661347,35.1433869 36.7466672,33.6611206 35.3999986,33.6611206 C34.5022195,33.6611206 33.9141742,34.1186102 33.3306178,35.0701885 L32.4014165,36.7720498 Z M28.2581661,46.3793311 C25.861096,46.3793311 24.1553158,44.7460933 24.1553158,42.3396981 C24.1553158,39.9333028 25.8251848,38.3046399 28.1953216,38.3046399 C30.664214,38.3046399 32.338572,39.969902 32.338572,42.3396981 C32.338572,44.7094941 30.664214,46.3793311 28.2671439,46.3793311 M28.3748774,53.5619176 C30.9559922,54.2252775 33.7615518,54.5958441 33.7615518,56.4120777 C33.7615518,58.2283114 31.692171,59.1890395 28.1683882,59.1890395 C24.7164277,59.1890395 22.9343362,58.2969348 22.9343362,56.709446 C22.9343362,54.820014 25.4436287,53.7449134 28.3838552,53.5619176 M13.9475678,43.2546772 L13.4986783,43.2546772 C5.61617807,43.4010739 1.76470588,45.1761335 1.76470588,49.2889649 C1.76470588,52.3221208 3.98222017,54.3579495 7.72595888,54.3579495 C10.4192961,54.3579495 12.6996549,53.1776264 14.0104123,51.2515952 C14.0463235,53.4338205 14.9530804,54.1383545 16.2234377,54.1383545 C16.8788165,54.1383545 17.5341952,53.9141846 17.5341952,53.7311888 L17.5341952,42.8109123 C17.5341952,38.2909152 14.840858,35.7015242 9.90307311,35.7015242 C4.96528825,35.7015242 2.4200846,38.2543161 2.4200846,39.9561773 C2.4200846,41.7358118 4.63759889,41.7861357 4.63759889,41.7358118 C5.55779956,39.7902082 7.53042977,38.5940426 9.64720608,38.698081 C12.4482768,38.698081 13.9700123,40.1803472 13.9700123,42.8841107 L13.9475678,43.2546772 Z M8.56089341,51.7319593 C6.49151266,51.7319593 5.25257755,50.7300571 5.25257755,49.1379933 C5.25257755,46.7315981 7.86960353,45.77087 12.9555219,45.5832992 L13.9341011,45.5467001 L13.9341011,46.9191688 C13.9341011,49.7327298 11.6896535,51.7319593 8.54742672,51.7319593" id="Shape" fill="#FFFFFF"></path>
            <path d="M99.0985083,16.7839578 L111.858883,16.7839578 C112.687305,16.7839578 112.941176,16.5036502 112.941176,15.7705379 L112.941176,15.4945427 C112.941176,10.4662553 109.623034,7.04650232 104.612415,7.04650232 C99.4949039,7.04650232 95.7447344,10.8500611 95.7447344,15.9473473 C95.7447344,21.1826312 99.4236417,24.7058824 104.901918,24.7058824 C109.623034,24.7058824 112.29091,22.368548 112.29091,20.9023236 C112.29091,19.4360991 110.487087,19.1212921 110.415825,19.1773536 C109.525048,20.6737651 108.00182,21.9674925 104.97318,21.9674925 C101.695122,21.9674925 99.3523796,19.8371546 99.0985083,16.7667081 M99.0985083,14.4293738 C99.5438966,11.6392349 101.730753,9.64689454 104.576784,9.64689454 C107.422815,9.64689454 109.2979,11.5314242 109.476056,14.4293738 L99.0985083,14.4293738 Z M84.9707916,10.2765086 L84.9707916,19.1601039 C84.9707916,22.7868533 86.592005,24.7058824 90.1595652,24.7058824 C92.7205479,24.7058824 94.199237,23.4509667 94.199237,22.1572392 C94.199237,21.079133 93.3084604,20.5875166 93.1882056,20.6910148 C92.6258962,21.4563759 91.708396,21.902171 90.73857,21.881244 C89.0416406,21.881244 88.4314586,20.8678242 88.4314586,18.7762981 L88.4314586,10.2937583 L92.3597834,10.2937583 C93.477708,10.2937583 93.9097346,9.84095366 93.9097346,8.9655314 L93.9097346,8.72403561 C93.9097346,7.86155062 93.5133391,7.46480753 92.3954144,7.46480753 L88.4715436,7.46480753 L88.4715436,4.89028986 C88.4715436,3.59656238 87.8569077,3.25156839 86.9215923,3.25156839 L86.5608278,3.25156839 C85.5854274,3.25156839 84.9752454,3.68281088 84.9752454,4.89028986 L84.9752454,7.47774481 L83.7058888,7.47774481 C82.5924181,7.47774481 82.1559375,7.93486185 82.1559375,8.77147228 L82.1559375,9.01296808 C82.1559375,9.85389094 82.6013258,10.3066956 83.7058888,10.3066956 L84.9707916,10.2765086 Z M77.1453192,24.3910753 L77.5060837,24.3910753 C78.445853,24.3910753 79.0916661,24.0115819 79.0916661,22.7523539 L79.0916661,8.95259413 C79.0916661,7.65886665 78.445853,7.27937326 77.5060837,7.27937326 L77.1453192,7.27937326 C76.2100038,7.27937326 75.5241058,7.71061575 75.5241058,8.95259413 L75.5241058,22.7523539 C75.5241058,24.0115819 76.2100038,24.3910753 77.1453192,24.3910753 M77.3368362,3.87255758 C78.7086321,3.87255758 79.4657922,3.20844414 79.4657922,1.95352849 C79.4657922,0.698612837 78.7086321,0 77.3724673,0 C76.0363024,0 75.2078801,0.694300412 75.2078801,1.95352849 C75.2078801,3.21275656 76.0006713,3.87255758 77.3368362,3.87255758 M58.6928822,10.0134507 C58.585989,7.81411395 57.5036954,7.29231054 56.4659407,7.29231054 C55.7444117,7.29231054 55.1698608,7.57261816 55.1698608,7.67611635 L55.1698608,22.7696036 C55.1698608,24.0288316 55.8201277,24.408325 56.7554431,24.408325 L57.1518387,24.408325 C58.0426153,24.408325 58.737421,24.0288316 58.737421,22.7696036 L58.737421,13.0148984 C59.6078946,11.1841229 61.515421,10.0261866 63.5966073,10.0651998 C66.1175051,10.0651998 67.605102,11.8117318 67.605102,14.6406826 L67.605102,22.7523539 C67.605102,24.0115819 68.2553689,24.3910753 69.1906843,24.3910753 L69.5870799,24.3910753 C70.4778565,24.3910753 71.1726622,24.0115819 71.1726622,22.7523539 L71.1726622,14.2353147 C71.1726622,10.0824495 69.04816,7.04650232 64.4918378,7.04650232 C62.1591202,6.98855641 59.9642156,8.11327399 58.7017899,10.0134507 M41.2202994,24.6756954 C47.4201044,24.6756954 50.7694244,21.2904418 50.7694244,15.0072387 L50.7694244,3.16531989 C50.7694244,2.04840184 50.2661356,1.52659842 49.223927,1.52659842 L48.6449223,1.52659842 C47.6027136,1.52659842 47.0593399,2.04840184 47.0593399,3.16531989 L47.0593399,14.9339275 C47.0593399,19.3326009 45.1842552,21.4974382 41.2692921,21.4974382 C37.4122295,21.4974382 35.4792443,19.2636021 35.4792443,14.9684269 L35.4792443,3.16531989 C35.4792443,2.08290124 34.9403244,1.52659842 33.8580309,1.52659842 L33.3547421,1.52659842 C32.3437107,1.52659842 31.7647059,2.08290124 31.7647059,3.16531989 L31.7647059,15.0676127 C31.7647059,21.3465033 35.0472176,24.6627581 41.2470227,24.6627581" id="Shape" fill="#FFFFFF"></path>
        </g>
    </g>
</svg>
