<?xml version="1.0" encoding="UTF-8"?>
<svg width="1440px" height="680px" viewBox="0 0 1440 680" version="1.1" xmlns="http://www.w3.org/2000/svg" xmlns:xlink="http://www.w3.org/1999/xlink">
    <title>Stripes</title>
    <defs>
        <rect id="path-1" x="0" y="0" width="1440" height="680"></rect>
    </defs>
    <g id="Symbols" stroke="none" stroke-width="1" fill="none" fill-rule="evenodd">
        <g id="stripes-copy">
            <mask id="mask-2" fill="white">
                <use xlink:href="#path-1"></use>
            </mask>
            <g id="Mask"></g>
            <g id="stripes" mask="url(#mask-2)" fill="#FFCC00" fill-rule="nonzero">
                <g transform="translate(-1565.000000, -77.000000)" id="Rectangle">
                    <polygon transform="translate(961.400847, 697.501591) rotate(-45.000000) translate(-961.400847, -697.501591) " points="21.9803929 650.634521 1900.81423 650.776505 1900.8213 744.368662 21.9874657 744.226677"></polygon>
                    <polygon transform="translate(1225.088501, 697.513973) rotate(-45.000000) translate(-1225.088501, -697.513973) " points="285.668047 650.646903 2164.50188 650.788887 2164.50895 744.381044 285.675119 744.239059"></polygon>
                    <polygon transform="translate(1488.786305, 697.501852) rotate(-45.000000) translate(-1488.786305, -697.501852) " points="549.365852 650.634781 2428.19969 650.776766 2428.20676 744.368923 549.372924 744.226938"></polygon>
                    <polygon transform="translate(1752.473959, 697.514234) rotate(-45.000000) translate(-1752.473959, -697.514234) " points="813.053505 650.647163 2691.88734 650.789148 2691.89441 744.381305 813.060578 744.23932"></polygon>
                    <polygon transform="translate(2016.171764, 697.502113) rotate(-45.000000) translate(-2016.171764, -697.502113) " points="1076.75131 650.635042 2955.58514 650.777027 2955.59222 744.369184 1076.75838 744.227199"></polygon>
                    <polygon transform="translate(2279.859418, 697.514495) rotate(-45.000000) translate(-2279.859418, -697.514495) " points="1340.43896 650.647424 3219.2728 650.789409 3219.27987 744.381566 1340.44604 744.239581"></polygon>
                    <polygon transform="translate(2543.557223, 697.502374) rotate(-45.000000) translate(-2543.557223, -697.502374) " points="1604.13677 650.635303 3482.9706 650.777288 3482.97768 744.369445 1604.14384 744.22746"></polygon>
                    <polygon transform="translate(2807.244876, 697.514756) rotate(-45.000000) translate(-2807.244876, -697.514756) " points="1867.82442 650.647685 3746.65826 650.78967 3746.66533 744.381827 1867.8315 744.239842"></polygon>
                    <polygon transform="translate(3070.942681, 697.502635) rotate(-45.000000) translate(-3070.942681, -697.502635) " points="2131.52223 650.635564 4010.35606 650.777549 4010.36314 744.369706 2131.5293 744.227721"></polygon>
                    <polygon transform="translate(3334.630335, 697.515017) rotate(-45.000000) translate(-3334.630335, -697.515017) " points="2395.20988 650.647946 4274.04372 650.789931 4274.05079 744.382088 2395.21695 744.240103"></polygon>
                    <polygon transform="translate(3598.328140, 697.502896) rotate(-45.000000) translate(-3598.328140, -697.502896) " points="2658.90769 650.635825 4537.74152 650.77781 4537.74859 744.369967 2658.91476 744.227982"></polygon>
                </g>
            </g>
        </g>
    </g>
</svg>
